# xmcd
#
# Track frame offsets:
#	150
#	12504
#	24892
#	35628
#	47722
#	58463
#	68197
#	82302
#	94704
#	105679
#	114443
#	129263
#
# Disc length: 1874 seconds
# Revision: 3
# Processed by: cddbd v1.5.2PL0 Copyright (c) Steve Scherf et al.
# Submitted via: dBpowerAMP V12.0
#
DISCID=a207500c
DTITLE=Various Artist - Miles of Country
DYEAR=2000
DGENRE=Country
TTITLE0=Kenny Rogers and The First Edition - Reuben James
TTITLE1=Bobby Bare - 500 Miles
TTITLE2=Billie Jo Spears - I'm So Lonesome I Could Cry
TTITLE3=Karl Denver Trio - Marcheta
TTITLE4=Lynn Anderson - Heaven's Just A Sin Away
TTITLE5=Ned Miller - From A Jack To A King
TTITLE6=Frankie Laine - Don;T Fence Me In
TTITLE7=Barbara Mandrell - Midnight Oil
TTITLE8=Guy Mitchell - Singing The Blues
TTITLE9=Sandy Posey - Born A Woman
TTITLE10=George Jones - He Stopped Loving Her Today
TTITLE11=Freddy Fender - Before The Next Teardrop Falls
EXTD=
EXTT0=
EXTT1=
EXTT2=
EXTT3=
EXTT4=
EXTT5=
EXTT6=
EXTT7=
EXTT8=
EXTT9=
EXTT10=
EXTT11=
PLAYORDER=
